name rise36.2859peak64.2979fall75.1499.mot
datacolumns 19
datarows 11
range 5.44831500000000 5.46497700000000
endheader
time	ground_force1_vx	ground_force1_vy	ground_force1_vz	ground_force1_px	ground_force1_py	ground_force1_pz	ground_force2_vx	ground_force2_vy	ground_force2_vz	ground_force2_px	ground_force2_py	ground_force2_pz	ground_torque1_x	ground_torque1_y	ground_torque1_z	ground_torque2_x	ground_torque2_y	ground_torque2_z	
5.44831500000000	-2.45551700000000	42.14098300000000	-9.18975800000000	0.40640900000000	0.00000000000000	0.07014700000000	-54.99331200000000	785.22532000000001	-55.35105000000000	0.21842500000000	0.00000000000000	-0.11815300000000	0.00000000000000	-8.65122600000000	0.00000000000000	0.00000000000000	-33.94792900000000	0.00000000000000	
5.44998100000000	-2.56617200000000	49.65127500000000	-10.32104200000000	0.40953500000000	0.00000000000000	0.07160100000000	-55.63405200000000	782.41661999999997	-54.97976300000000	0.21721200000000	0.00000000000000	-0.11804400000000	0.00000000000000	-9.77206800000000	0.00000000000000	0.00000000000000	-33.83738700000000	0.00000000000000	
5.45164500000000	-2.59189800000000	57.32188500000000	-11.34364400000000	0.41235600000000	0.00000000000000	0.07288600000000	-56.28279200000000	779.47911599999998	-54.58808000000000	0.21598100000000	0.00000000000000	-0.11793200000000	0.00000000000000	-10.80255000000000	0.00000000000000	0.00000000000000	-33.72304700000000	0.00000000000000	
5.45330900000000	-2.52394600000000	65.05838199999999	-12.23291500000000	0.41493000000000	0.00000000000000	0.07403300000000	-56.93907700000000	776.41066899999998	-54.17571400000000	0.21473300000000	0.00000000000000	-0.11781700000000	0.00000000000000	-11.71899900000000	0.00000000000000	0.00000000000000	-33.60487700000000	0.00000000000000	
5.45498000000000	-2.35713600000000	72.78732700000000	-12.97247000000000	0.41730100000000	0.00000000000000	0.07506300000000	-57.60237700000000	773.20913399999995	-53.74239900000000	0.21346700000000	0.00000000000000	-0.11770000000000	0.00000000000000	-12.50539400000000	0.00000000000000	0.00000000000000	-33.48283600000000	0.00000000000000	
5.45664300000000	-2.08974300000000	80.45876199999999	-13.55429600000000	0.41950500000000	0.00000000000000	0.07599600000000	-58.27207800000000	769.87236399999995	-53.28789000000000	0.21218600000000	0.00000000000000	-0.11757800000000	0.00000000000000	-13.15352700000000	0.00000000000000	0.00000000000000	-33.35687400000000	0.00000000000000	
5.45831600000000	-1.72313100000000	88.04635100000000	-13.97815100000000	0.42157100000000	0.00000000000000	0.07684500000000	-58.94749100000000	766.39822000000004	-52.81196600000000	0.21089000000000	0.00000000000000	-0.11745400000000	0.00000000000000	-13.66251100000000	0.00000000000000	0.00000000000000	-33.22693100000000	0.00000000000000	
5.45997800000000	-1.26120000000000	95.54555300000000	-14.25044400000000	0.42352100000000	0.00000000000000	0.07762200000000	-59.62783900000000	762.78457600000002	-52.31443400000000	0.20958000000000	0.00000000000000	-0.11732600000000	0.00000000000000	-14.03776800000000	0.00000000000000	0.00000000000000	-33.09293600000000	0.00000000000000	
5.46164500000000	-0.70972900000000	102.97031200000001	-14.38274600000000	0.42537400000000	0.00000000000000	0.07833700000000	-60.31226800000000	759.02932199999998	-51.79513000000000	0.20825700000000	0.00000000000000	-0.11719500000000	0.00000000000000	-14.28967100000000	0.00000000000000	0.00000000000000	-32.95481200000000	0.00000000000000	
5.46331500000000	-0.07568400000000	110.34880699999999	-14.39015700000000	0.42714500000000	0.00000000000000	0.07899900000000	-60.99983500000000	755.13037999999995	-51.25391900000000	0.20692300000000	0.00000000000000	-0.11706000000000	0.00000000000000	-14.43201800000000	0.00000000000000	0.00000000000000	-32.81246700000000	0.00000000000000	
5.46497700000000	0.63344700000000	117.71876600000000	-14.28965400000000	0.42884800000000	0.00000000000000	0.07961200000000	-61.68951800000000	751.08569999999997	-50.69070500000000	0.20557700000000	0.00000000000000	-0.11692200000000	0.00000000000000	-14.48048900000000	0.00000000000000	0.00000000000000	-32.66580300000000	0.00000000000000	
